<?xml version="1.0" standalone="no"?>
<!DOCTYPE svg PUBLIC "-//W3C//DTD SVG 1.0//EN" "http://www.w3.org/TR/2001/REC-SVG-20010904/DTD/svg10.dtd">
<svg xmlns="http://www.w3.org/2000/svg" xmlns:xlink="http://www.w3.org/1999/xlink" id="body_1" width="51" height="38">
<g transform="matrix(0.082073435 0 0 0.082073435 6.499999 -0)">
    <path d="M439.5 224L431 224L431 119.5C 431 110.953 424.047 104 415.5 104L415.5 104L376.181 104C 373.023 104 370.079 103.173 367.668 101.608C 339.091 83.068 288.187 72 231.5 72C 174.81299 72 123.909 83.068 95.332 101.608C 92.921 103.172005 89.978 104 86.819 104L86.819 104L47.5 104C 38.953 104 32 110.953 32 119.5L32 119.5L32 224L23.5 224C 10.542 224 0 234.54199 0 247.5L0 247.5L0 263.5C 0 273.836 6.71 282.628 16 285.766L16 285.766L16 351.5C 16 361.836 22.71 370.628 32 373.766L32 373.766L32 383.5C 32 387.643 35.358 391 39.5 391C 43.642 391 47 387.643 47 383.5L47 383.5L47 375L416 375L416 383.5C 416 387.643 419.358 391 423.5 391C 427.642 391 431 387.643 431 383.5L431 383.5L431 373.766C 440.29 370.628 447 361.836 447 351.5L447 351.5L447 285.766C 456.29 282.628 463 273.836 463 263.5L463 263.5L463 247.5C 463 234.54199 452.458 224 439.5 224zM47 119.5C 47 119.225 47.224 119 47.5 119L47.5 119L86.819 119C 92.882 119 98.649 117.338 103.496 114.192C 129.349 97.42 178.397 87 231.5 87C 284.603 87 333.651 97.42 359.503 114.192C 364.35098 117.338 370.117 119 376.18 119L376.18 119L415.5 119C 415.776 119 416 119.225 416 119.5L416 119.5L416 224L394.319 224C 397.284 219.198 399 213.546 399 207.5L399 207.5L399 175.5C 399 158.131 384.869 144 367.5 144L367.5 144L271.5 144C 254.131 144 240 158.131 240 175.5L240 175.5L240 207.5C 240 213.546 241.716 219.198 244.681 224L244.681 224L218.318 224C 221.28299 219.198 222.999 213.546 222.999 207.5L222.999 207.5L222.999 175.5C 222.999 158.131 208.868 144 191.499 144L191.499 144L95.49899 144C 78.131 144 63.999992 158.131 63.999992 175.5L63.999992 175.5L63.999992 207.5C 63.999992 213.546 65.715996 219.198 68.68099 224L68.68099 224L46.999992 224L46.999992 119.5zM255 207.5L255 175.5C 255 166.40201 262.402 159 271.5 159L271.5 159L367.5 159C 376.598 159 384 166.402 384 175.5L384 175.5L384 207.5C 384 216.59799 376.598 224 367.5 224L367.5 224L271.5 224C 262.402 224 255 216.598 255 207.5zM79 207.5L79 175.5C 79 166.40201 86.402 159 95.5 159L95.5 159L191.5 159C 200.59799 159 208 166.402 208 175.5L208 175.5L208 207.5C 208 216.59799 200.598 224 191.5 224L191.5 224L95.5 224C 86.402 224 79 216.598 79 207.5zM423.5 360L39.5 360C 34.813 360 31 356.187 31 351.5L31 351.5L31 287L432 287L432 351.5C 432 356.187 428.187 360 423.5 360zM448 263.5C 448 268.187 444.187 272 439.5 272L439.5 272L23.5 272C 18.813 272 15 268.187 15 263.5L15 263.5L15 247.5C 15 242.813 18.813 239 23.5 239L23.5 239L39.5 239L95.5 239L191.5 239L271.5 239L367.5 239L423.5 239L439.5 239C 444.187 239 448 242.813 448 247.5L448 247.5L448 263.5z" stroke="#808080" stroke-width="12px" fill="#808080" fill-rule="nonzero" />
</g>
</svg>