<?xml version="1.0" encoding="iso-8859-1"?>
<!-- Generator: Adobe Illustrator 16.0.0, SVG Export Plug-In . SVG Version: 6.00 Build 0)  -->
<!DOCTYPE svg PUBLIC "-//W3C//DTD SVG 1.1//EN" "http://www.w3.org/Graphics/SVG/1.1/DTD/svg11.dtd">
<svg version="1.1" id="Capa_1" xmlns="http://www.w3.org/2000/svg" xmlns:xlink="http://www.w3.org/1999/xlink" x="0px" y="0px"
	 width="60.707px" height="60.707px" viewBox="0 0 60.707 60.707" style="enable-background:new 0 0 60.707 60.707; fill:white;"
	 xml:space="preserve">
<g>
	<g>
		<path d="M55.377,24.919c-4.115-3.246-8.23-6.492-12.346-9.738c-0.002-0.002-0.006-0.002-0.008-0.003
			c-0.027-0.025-0.064-0.05-0.117-0.071c-6.672-2.722-2.856,7.661-4.514,7.908c-6.086,0.909-12.17,1.816-18.257,2.725
			c-5.814,0.868-11.628,1.735-17.441,2.604C0.936,28.606,0,29.399,0,31.151c0,1.594,2.95,1.537,4.005,1.693
			c6.749,1.005,13.499,2.009,20.248,3.015c2.339,0.348,14.326,0.482,14.326,3.657c0,1.317-0.851,6.098,1.261,6.463
			c1.711,0.297,2.764-0.32,4.064-1.347c5.203-4.103,10.408-8.208,15.611-12.311c0.364-0.287,0.613-0.573,0.805-0.858
			c0.016-0.017,0.025-0.036,0.039-0.054c0.045-0.069,0.098-0.14,0.133-0.208c0.068-0.129,0.123-0.268,0.154-0.411
			C61.255,28.468,57.145,26.314,55.377,24.919z M2.33,29.856c-0.064,0.153-0.128,0.309-0.19,0.462"/>
	</g>
</g>
</svg>
