<?xml version="1.0" standalone="no"?>
<!DOCTYPE svg PUBLIC "-//W3C//DTD SVG 1.0//EN" "http://www.w3.org/TR/2001/REC-SVG-20010904/DTD/svg10.dtd">
<svg xmlns="http://www.w3.org/2000/svg" xmlns:xlink="http://www.w3.org/1999/xlink" id="body_1" width="51" height="38">

<g transform="matrix(0.07421875 0 0 0.07421875 6.5 -0)">
	<g>
		<g>
            <path d="M402.574 193.109L306.497 121.062C 302.811 53.769 247.396 0 179.197 0C 108.618004 0 51.197006 57.429 51.197006 128L51.197006 128L51.197006 499.2C 51.197006 506.27402 56.923004 512 63.997005 512C 71.07101 512 76.797005 506.274 76.797005 499.2L76.797005 499.2L76.797005 128C 76.797005 71.543 122.72301 25.599998 179.197 25.599998C 233.63101 25.599998 277.842 68.403 281 122.052L281 122.052L184.317 194.551C 179.888 197.853 178.113 203.61299 179.84601 208.836C 181.595 214.058 186.49301 217.583 191.99701 217.583L191.99701 217.583L396.797 217.583C 396.97598 217.592 397.172 217.583 397.3 217.583C 404.374 217.583 410.09998 211.857 410.09998 204.78299C 410.101 199.586 407.029 195.106 402.574 193.109zM230.397 191.991L294.397 143.991L358.397 191.991L230.397 191.991z" stroke="#808080" stroke-width="12" fill="#808080" fill-rule="nonzero" />
		</g>
	</g>
	<g>
		<g>
            <path d="M159.895 425.975C 152.966 424.209 146.071 428.31302 144.296 435.12302L144.296 435.12302L128.42401 495.966C 126.62301 502.818 130.72801 509.807 137.572 511.591C 138.647 511.864 139.748 512.001 140.798 512.001C 146.498 512.001 151.669 508.18698 153.171 502.43497L153.171 502.43497L169.043 441.59198C 170.843 434.748 166.747 427.759 159.895 425.975z" stroke="#808080" stroke-width="12" fill="#808080" fill-rule="nonzero" />
		</g>
	</g>
	<g>
		<g>
            <path d="M185.469 327.962C 178.668 326.238 171.64499 330.275 169.87 337.11002L169.87 337.11002L161.31999 369.82703C 159.519 376.66202 163.624 383.66803 170.46799 385.45203C 171.54298 385.72504 172.61798 385.86203 173.69398 385.86203C 179.39398 385.86203 184.56499 382.04803 186.06699 376.29602L186.06699 376.29602L194.61699 343.579C 196.417 336.742 192.321 329.745 185.469 327.962z" stroke="#808080" stroke-width="12" fill="#808080" fill-rule="nonzero" />
		</g>
	</g>
	<g>
		<g>
            <path d="M210.02 233.847C 203.117 232.081 196.196 236.185 194.421 242.995L194.421 242.995L186.169 274.611C 184.36801 281.46298 188.473 288.452 195.317 290.236C 196.392 290.509 197.493 290.646 198.543 290.646C 204.243 290.646 209.414 286.832 210.916 281.08L210.916 281.08L219.168 249.46399C 220.968 242.62 216.872 235.631 210.02 233.847z" stroke="#808080" stroke-width="12" fill="#808080" fill-rule="nonzero" />
		</g>
	</g>
	<g>
		<g>
            <path d="M248.147 442.146C 241.243 441.44598 234.895 446.745 234.297 453.785L234.297 453.785L230.448 498.09C 229.825 505.139 235.047 511.342 242.096 511.957C 242.471 511.991 242.847 512 243.222 512C 249.776 512 255.373 506.974 255.945 500.309L255.945 500.309L259.794 456.004C 260.426 448.964 255.195 442.761 248.147 442.146z" stroke="#808080" stroke-width="12" fill="#808080" fill-rule="nonzero" />
		</g>
	</g>
	<g>
		<g>
            <path d="M258.446 323.831C 251.64502 323.259 245.21901 328.43 244.59601 335.47L244.59601 335.47L237.36801 418.576C 236.74501 425.625 241.96701 431.828 249.016 432.443C 249.391 432.477 249.76701 432.494 250.14201 432.494C 256.696 432.494 262.293 427.468 262.86502 420.80298L262.86502 420.80298L270.09302 337.69696C 270.726 330.65 265.495 324.446 258.446 323.831z" stroke="#808080" stroke-width="12" fill="#808080" fill-rule="nonzero" />
		</g>
	</g>
	<g>
		<g>
            <path d="M266.22 234.172C 259.274 233.472 252.993 238.771 252.37 245.81999L252.37 245.81999L248.81999 286.874C 248.22299 293.914 253.41899 300.10898 260.468 300.724C 260.843 300.758 261.219 300.775 261.594 300.775C 268.14798 300.775 273.745 295.749 274.317 289.076L274.317 289.076L277.86697 248.02199C 278.474 240.981 273.277 234.778 266.22 234.172z" stroke="#808080" stroke-width="12" fill="#808080" fill-rule="nonzero" />
		</g>
	</g>
	<g>
		<g>
            <path d="M358.346 498.082L355.743 468.215C 355.129 461.175 348.652 455.82498 341.902 456.58398C 334.853 457.198 329.62302 463.39398 330.254 470.451L330.254 470.451L332.857 500.318C 333.429 506.974 339.027 512 345.572 512C 345.947 512 346.323 511.992 346.698 511.949C 353.747 511.334 358.977 505.139 358.346 498.082z" stroke="#808080" stroke-width="12" fill="#808080" fill-rule="nonzero" />
		</g>
	</g>
	<g>
		<g>
            <path d="M350.871 412.271L346.024 356.258C 345.401 349.192 338.94998 343.859 332.17398 344.61C 325.12497 345.224 319.91998 351.41998 320.52597 358.46L320.52597 358.46L325.373 414.473C 325.94498 421.146 331.551 426.172 338.09598 426.172C 338.47098 426.172 338.847 426.163 339.222 426.121C 346.271 425.506 351.477 419.311 350.871 412.271z" stroke="#808080" stroke-width="12" fill="#808080" fill-rule="nonzero" />
		</g>
	</g>
	<g>
		<g>
            <path d="M341.646 306.039L336.32098 244.71C 335.698 237.66101 329.27197 232.362 322.47098 233.07101C 315.42197 233.68501 310.192 239.88101 310.82297 246.93802L310.82297 246.93802L316.14798 308.26703C 316.71997 314.93103 322.326 319.95804 328.87097 319.95804C 329.24597 319.95804 329.62198 319.94904 329.99698 319.90704C 337.047 319.292 342.278 313.097 341.646 306.039z" stroke="#808080" stroke-width="12" fill="#808080" fill-rule="nonzero" />
		</g>
	</g>
	<g>
		<g>
            <path d="M460.379 495.966L437.902 409.831C 436.127 403.021 429.24902 398.908 422.303 400.68298C 415.45102 402.46698 411.355 409.455 413.155 416.30798L413.155 416.30798L435.632 502.443C 437.125 508.186 442.305 512 448.00497 512C 449.05496 512 450.15497 511.864 451.231 511.59C 458.075 509.798 462.18 502.81 460.379 495.966z" stroke="#808080" stroke-width="12" fill="#808080" fill-rule="nonzero" />
		</g>
	</g>
	<g>
		<g>
            <path d="M420.349 342.485L410.22 303.692C 408.445 296.891 401.516 292.744 394.621 294.54398C 387.769 296.32797 383.673 303.31598 385.473 310.16898L385.473 310.16898L395.602 348.96198C 397.104 354.71298 402.275 358.52798 407.97498 358.52798C 409.02496 358.52798 410.12497 358.391 411.201 358.11798C 418.054 356.318 422.15 349.338 420.349 342.485z" stroke="#808080" stroke-width="12" fill="#808080" fill-rule="nonzero" />
		</g>
	</g>
	<g>
		<g>
            <path d="M400.577 266.718L392.103 234.23999C 390.328 227.43 383.425 223.31699 376.504 225.092C 369.652 226.875 365.556 233.864 367.356 240.717L367.356 240.717L375.83 273.195C 377.332 278.946 382.503 282.76102 388.20297 282.76102C 389.25296 282.76102 390.35297 282.61603 391.429 282.34302C 398.282 280.559 402.378 273.57 400.577 266.718z" stroke="#808080" stroke-width="12" fill="#808080" fill-rule="nonzero" />
		</g>
	</g>
	<g>
	</g>
	<g>
	</g>
	<g>
	</g>
	<g>
	</g>
	<g>
	</g>
	<g>
	</g>
	<g>
	</g>
	<g>
	</g>
	<g>
	</g>
	<g>
	</g>
	<g>
	</g>
	<g>
	</g>
	<g>
	</g>
	<g>
	</g>
	<g>
	</g>
</g>
</svg>