<?xml version="1.0" encoding="iso-8859-1"?>
<!-- Generator: Adobe Illustrator 19.0.0, SVG Export Plug-In . SVG Version: 6.00 Build 0)  -->
<svg version="1.1" id="Layer_1" xmlns="http://www.w3.org/2000/svg" xmlns:xlink="http://www.w3.org/1999/xlink" x="0px" y="0px"
	 viewBox="0 0 512 512" style="enable-background:new 0 0 512 512;" xml:space="preserve">
<g>
	<g>
		<path d="M402.574,193.109l-96.077-72.047C302.811,53.769,247.396,0,179.197,0c-70.579,0-128,57.429-128,128v371.2
			c0,7.074,5.726,12.8,12.8,12.8s12.8-5.726,12.8-12.8V128c0-56.457,45.926-102.4,102.4-102.4
			c54.434,0,98.645,42.803,101.803,96.452l-96.683,72.499c-4.429,3.302-6.204,9.062-4.471,14.285
			c1.749,5.222,6.647,8.747,12.151,8.747h204.8c0.179,0.009,0.375,0,0.503,0c7.074,0,12.8-5.726,12.8-12.8
			C410.101,199.586,407.029,195.106,402.574,193.109z M230.397,191.991l64-48l64,48H230.397z"/>
	</g>
</g>
<g>
	<g>
		<path d="M159.895,425.975c-6.929-1.766-13.824,2.338-15.599,9.148l-15.872,60.843c-1.801,6.852,2.304,13.841,9.148,15.625
			c1.075,0.273,2.176,0.41,3.226,0.41c5.7,0,10.871-3.814,12.373-9.566l15.872-60.843
			C170.843,434.748,166.747,427.759,159.895,425.975z"/>
	</g>
</g>
<g>
	<g>
		<path d="M185.469,327.962c-6.801-1.724-13.824,2.313-15.599,9.148l-8.55,32.717c-1.801,6.835,2.304,13.841,9.148,15.625
			c1.075,0.273,2.15,0.41,3.226,0.41c5.7,0,10.871-3.814,12.373-9.566l8.55-32.717C196.417,336.742,192.321,329.745,185.469,327.962
			z"/>
	</g>
</g>
<g>
	<g>
		<path d="M210.02,233.847c-6.903-1.766-13.824,2.338-15.599,9.148l-8.252,31.616c-1.801,6.852,2.304,13.841,9.148,15.625
			c1.075,0.273,2.176,0.41,3.226,0.41c5.7,0,10.871-3.814,12.373-9.566l8.252-31.616C220.968,242.62,216.872,235.631,210.02,233.847
			z"/>
	</g>
</g>
<g>
	<g>
		<path d="M248.147,442.146c-6.904-0.7-13.252,4.599-13.85,11.639l-3.849,44.305c-0.623,7.049,4.599,13.252,11.648,13.867
			c0.375,0.034,0.751,0.043,1.126,0.043c6.554,0,12.151-5.026,12.723-11.691l3.849-44.305
			C260.426,448.964,255.195,442.761,248.147,442.146z"/>
	</g>
</g>
<g>
	<g>
		<path d="M258.446,323.831c-6.801-0.572-13.227,4.599-13.85,11.639l-7.228,83.106c-0.623,7.049,4.599,13.252,11.648,13.867
			c0.375,0.034,0.751,0.051,1.126,0.051c6.554,0,12.151-5.026,12.723-11.691l7.228-83.106
			C270.726,330.65,265.495,324.446,258.446,323.831z"/>
	</g>
</g>
<g>
	<g>
		<path d="M266.22,234.172c-6.946-0.7-13.227,4.599-13.85,11.648l-3.55,41.054c-0.597,7.04,4.599,13.235,11.648,13.85
			c0.375,0.034,0.751,0.051,1.126,0.051c6.554,0,12.151-5.026,12.723-11.699l3.55-41.054
			C278.474,240.981,273.277,234.778,266.22,234.172z"/>
	</g>
</g>
<g>
	<g>
		<path d="M358.346,498.082l-2.603-29.867c-0.614-7.04-7.091-12.39-13.841-11.631c-7.049,0.614-12.279,6.81-11.648,13.867
			l2.603,29.867c0.572,6.656,6.17,11.682,12.715,11.682c0.375,0,0.751-0.008,1.126-0.051
			C353.747,511.334,358.977,505.139,358.346,498.082z"/>
	</g>
</g>
<g>
	<g>
		<path d="M350.871,412.271l-4.847-56.013c-0.623-7.066-7.074-12.399-13.85-11.648c-7.049,0.614-12.254,6.81-11.648,13.85
			l4.847,56.013c0.572,6.673,6.178,11.699,12.723,11.699c0.375,0,0.751-0.009,1.126-0.051
			C346.271,425.506,351.477,419.311,350.871,412.271z"/>
	</g>
</g>
<g>
	<g>
		<path d="M341.646,306.039l-5.325-61.329c-0.623-7.049-7.049-12.348-13.85-11.639c-7.049,0.614-12.279,6.81-11.648,13.867
			l5.325,61.329c0.572,6.664,6.178,11.691,12.723,11.691c0.375,0,0.751-0.009,1.126-0.051
			C337.047,319.292,342.278,313.097,341.646,306.039z"/>
	</g>
</g>
<g>
	<g>
		<path d="M460.379,495.966l-22.477-86.135c-1.775-6.81-8.653-10.923-15.599-9.148c-6.852,1.784-10.948,8.772-9.148,15.625
			l22.477,86.135c1.493,5.743,6.673,9.557,12.373,9.557c1.05,0,2.15-0.136,3.226-0.41
			C458.075,509.798,462.18,502.81,460.379,495.966z"/>
	</g>
</g>
<g>
	<g>
		<path d="M420.349,342.485l-10.129-38.793c-1.775-6.801-8.704-10.948-15.599-9.148c-6.852,1.784-10.948,8.772-9.148,15.625
			l10.129,38.793c1.502,5.751,6.673,9.566,12.373,9.566c1.05,0,2.15-0.137,3.226-0.41
			C418.054,356.318,422.15,349.338,420.349,342.485z"/>
	</g>
</g>
<g>
	<g>
		<path d="M400.577,266.718l-8.474-32.478c-1.775-6.81-8.678-10.923-15.599-9.148c-6.852,1.783-10.948,8.772-9.148,15.625
			l8.474,32.478c1.502,5.751,6.673,9.566,12.373,9.566c1.05,0,2.15-0.145,3.226-0.418
			C398.282,280.559,402.378,273.57,400.577,266.718z"/>
	</g>
</g>
<g>
</g>
<g>
</g>
<g>
</g>
<g>
</g>
<g>
</g>
<g>
</g>
<g>
</g>
<g>
</g>
<g>
</g>
<g>
</g>
<g>
</g>
<g>
</g>
<g>
</g>
<g>
</g>
<g>
</g>
</svg>
